<?xml version="1.0" standalone="no"?>
<!DOCTYPE svg PUBLIC "-//W3C//DTD SVG 20010904//EN"
 "http://www.w3.org/TR/2001/REC-SVG-20010904/DTD/svg10.dtd">
<svg version="1.0" xmlns="http://www.w3.org/2000/svg"
 width="170.000000pt" height="170.000000pt" viewBox="0 0 170.000000 170.000000"
 preserveAspectRatio="xMidYMid meet">
<metadata>
Created by potrace 1.14, written by Peter Selinger 2001-2017
</metadata>
<g transform="translate(0.000000,170.000000) scale(0.100000,-0.100000)"
fill="#000000" stroke="none">
<path d="M785 1686 c-16 -7 -97 -53 -180 -101 -82 -49 -171 -100 -197 -114
-181 -101 -219 -126 -225 -150 -3 -13 -2 -31 4 -40 8 -14 155 -104 313 -193
25 -14 95 -54 155 -89 141 -82 152 -87 200 -85 46 2 63 10 292 142 385 222
381 220 370 266 -5 18 -30 38 -93 74 -47 27 -110 63 -138 79 -353 204 -376
216 -423 221 -30 3 -59 -1 -78 -10z"/>
<path d="M95 1164 c-19 -14 -20 -28 -23 -354 -2 -221 1 -354 8 -380 6 -22 25
-54 43 -70 31 -30 370 -230 388 -230 5 0 9 -4 9 -10 0 -5 4 -10 9 -10 6 0 53
-25 106 -56 102 -60 133 -65 155 -24 7 14 10 135 8 373 -3 342 -4 353 -25 387
-20 32 -90 81 -218 151 -16 9 -113 65 -215 124 -102 59 -194 108 -205 110 -11
2 -29 -3 -40 -11z"/>
<path d="M1540 1167 c-48 -25 -505 -290 -517 -299 -19 -15 -16 -62 5 -80 39
-35 526 -308 547 -308 52 0 55 19 55 350 -1 224 -4 309 -13 321 -18 24 -49 30
-77 16z"/>
<path d="M920 680 c-19 -19 -20 -33 -20 -328 0 -331 3 -352 52 -352 16 0 205
104 409 225 10 6 38 21 64 35 87 46 112 84 83 122 -7 9 -110 72 -228 141 -352
203 -326 191 -360 157z"/>
</g>
</svg>
